<?xml version="1.0" encoding="iso-8859-1"?>
<svg fill="#000000" height="25px" width="25px" version="1.1" id="Layer_1" xmlns="http://www.w3.org/2000/svg" xmlns:xlink="http://www.w3.org/1999/xlink" 
	 viewBox="0 0 512 512" xml:space="preserve">
<g>
	<g>
		<path d="M447.168,134.56c-0.535-1.288-1.318-2.459-2.304-3.445l-128-128c-2.003-1.988-4.709-3.107-7.531-3.115H138.667
			C132.776,0,128,4.776,128,10.667V64H74.667C68.776,64,64,68.776,64,74.667v426.667C64,507.224,68.776,512,74.667,512h298.667
			c5.891,0,10.667-4.776,10.667-10.667V448h53.333c5.891,0,10.667-4.776,10.667-10.667V138.667
			C447.997,137.256,447.714,135.86,447.168,134.56z M320,36.416L411.584,128H320V36.416z M362.667,490.667H85.333V85.333H128v352
			c0,5.891,4.776,10.667,10.667,10.667h224V490.667z M426.667,426.667H149.333V21.333h149.333v117.333
			c0,5.891,4.776,10.667,10.667,10.667h117.333V426.667z"/>
	</g>
</g>
</svg>